<svg width="282" height="170" viewBox="0 0 282 170" fill="none" xmlns="http://www.w3.org/2000/svg">
<g id="Card 3" clip-path="url(#clip0_77_1224)">
<rect id="Rectangle" width="282" height="170" rx="15" fill="#2260FF"/>
<g id="VISA Logo">
<rect id="Mask" opacity="0.01" width="282" height="170" rx="10" fill="white"/>
<mask id="mask0_77_1224" style="mask-type:luminance" maskUnits="userSpaceOnUse" x="0" y="0" width="282" height="170">
<rect id="Mask_2" width="282" height="170" rx="10" fill="white"/>
</mask>
<g mask="url(#mask0_77_1224)">
<g id="VISA Logo_2" opacity="0.101761">
<path id="Shape" fill-rule="evenodd" clip-rule="evenodd" d="M303.617 91.9022C303.398 109.726 319.326 119.68 331.327 125.601C343.658 131.67 347.804 135.567 347.756 140.995C347.658 149.308 337.913 152.972 328.79 153.107C317.469 153.358 306.273 150.665 296.275 145.287L290.543 172.424C301.764 176.844 313.711 179.075 325.754 178.998C359.013 178.998 380.771 162.395 380.893 136.653C380.973 117.088 364.936 108.571 352.12 101.763C343.531 97.2014 336.388 93.4077 336.511 87.5726C336.62 83.1445 340.792 78.4202 349.927 77.2114C360.638 76.1734 371.427 78.0872 381.149 82.7497L386.711 56.5013C377.235 52.8945 367.198 51.0314 357.074 51C325.766 51 303.751 67.8246 303.568 91.9268L303.617 91.9022ZM440.167 53.2696C434.283 53.246 428.975 56.8383 426.751 62.348L379.186 177.062H412.421L419.031 158.559H459.645L463.487 177.062H492.758L467.146 53.2573H440.253L440.167 53.2696ZM454.486 133.236L444.899 86.7092L444.863 86.6845L428.215 133.236H454.486ZM263.32 53.2449L237.123 177.049H268.833L295.019 53.2449H263.32ZM183.532 137.516L216.462 53.2449H216.474H249.722L198.424 177.049H164.957L139.698 78.2475C139.236 73.5428 136.385 69.421 132.173 67.3683C122.234 62.5499 111.736 59.011 100.926 56.8344L101.683 53.2449H155.542C162.832 53.2173 169.05 58.5784 170.177 65.8634L183.532 137.516Z" fill="white"/>
</g>
</g>
</g>
<path id="02/23" d="M156.211 145.17C158.291 145.17 159.527 143.465 159.527 140.758C159.527 138.051 158.279 136.375 156.211 136.375C154.137 136.375 152.883 138.062 152.883 140.764C152.883 143.477 154.125 145.17 156.211 145.17ZM156.211 143.934C155.063 143.934 154.406 142.762 154.406 140.758C154.406 138.789 155.074 137.611 156.211 137.611C157.342 137.611 158.004 138.783 158.004 140.764C158.004 142.768 157.354 143.934 156.211 143.934ZM161.273 145H165.949C166.348 145 166.594 144.754 166.594 144.385C166.594 144.01 166.348 143.764 165.949 143.764H162.574V143.734L164.514 141.824C165.914 140.453 166.389 139.785 166.389 138.795C166.389 137.377 165.223 136.375 163.529 136.375C161.883 136.375 160.869 137.342 160.641 138.256C160.611 138.355 160.594 138.461 160.594 138.572C160.594 138.947 160.84 139.199 161.25 139.199C161.596 139.199 161.772 139.041 161.924 138.736C162.223 137.975 162.756 137.588 163.518 137.588C164.332 137.588 164.912 138.133 164.912 138.889C164.912 139.533 164.643 139.961 163.565 141.027L160.981 143.588C160.658 143.893 160.559 144.068 160.559 144.361C160.559 144.742 160.805 145 161.273 145ZM167.813 147.016C168.152 147.016 168.357 146.846 168.463 146.5L171.147 137.266C171.17 137.178 171.176 137.107 171.176 137.025C171.176 136.668 170.924 136.428 170.549 136.428C170.197 136.428 169.998 136.604 169.887 136.979L167.215 146.178C167.197 146.242 167.18 146.342 167.18 146.441C167.18 146.775 167.42 147.016 167.813 147.016ZM172.676 145H177.352C177.75 145 177.996 144.754 177.996 144.385C177.996 144.01 177.75 143.764 177.352 143.764H173.977V143.734L175.916 141.824C177.316 140.453 177.791 139.785 177.791 138.795C177.791 137.377 176.625 136.375 174.932 136.375C173.285 136.375 172.272 137.342 172.043 138.256C172.014 138.355 171.996 138.461 171.996 138.572C171.996 138.947 172.242 139.199 172.652 139.199C172.998 139.199 173.174 139.041 173.326 138.736C173.625 137.975 174.158 137.588 174.92 137.588C175.734 137.588 176.315 138.133 176.315 138.889C176.315 139.533 176.045 139.961 174.967 141.027L172.383 143.588C172.061 143.893 171.961 144.068 171.961 144.361C171.961 144.742 172.207 145 172.676 145ZM182.092 145.17C183.943 145.17 185.256 144.15 185.256 142.65C185.256 141.473 184.43 140.723 183.182 140.605V140.576C184.201 140.365 184.957 139.656 184.957 138.596C184.957 137.289 183.832 136.375 182.08 136.375C180.703 136.375 179.766 136.99 179.367 137.828C179.262 138.033 179.221 138.221 179.221 138.432C179.221 138.818 179.443 139.064 179.865 139.064C180.217 139.064 180.381 138.93 180.545 138.566C180.826 137.904 181.289 137.576 182.086 137.576C183.023 137.576 183.504 138.068 183.504 138.801C183.504 139.551 182.883 140.084 181.951 140.084H181.506C181.131 140.084 180.908 140.312 180.908 140.646C180.908 140.98 181.131 141.209 181.506 141.209H181.986C183.07 141.209 183.727 141.713 183.721 142.615C183.721 143.383 183.07 143.934 182.109 143.934C181.184 143.934 180.674 143.553 180.381 142.914C180.223 142.604 180.035 142.469 179.725 142.469C179.303 142.469 179.051 142.721 179.051 143.119C179.051 143.318 179.098 143.512 179.209 143.717C179.648 144.566 180.609 145.17 182.092 145.17Z" fill="white"/>
<path id="Exp. Date" d="M153.502 124H157.081C157.33 124 157.501 123.839 157.501 123.604C157.501 123.37 157.33 123.209 157.081 123.209H153.941V120.787H156.905C157.149 120.787 157.32 120.626 157.32 120.396C157.32 120.162 157.149 120.006 156.905 120.006H153.941V117.745H157.081C157.33 117.745 157.501 117.584 157.501 117.35C157.501 117.115 157.33 116.954 157.081 116.954H153.502C153.233 116.954 153.063 117.13 153.063 117.408V123.546C153.063 123.824 153.233 124 153.502 124ZM158.648 124.088C158.785 124.088 158.888 124.034 158.966 123.922L160.235 122.066H160.255L161.515 123.922C161.588 124.034 161.7 124.088 161.837 124.088C162.066 124.088 162.242 123.927 162.242 123.717C162.242 123.634 162.213 123.551 162.154 123.463L160.724 121.427L162.174 119.444C162.228 119.371 162.257 119.283 162.257 119.195C162.257 118.99 162.076 118.834 161.837 118.834C161.7 118.834 161.607 118.893 161.51 119.034L160.284 120.826H160.265L159.01 119.015C158.917 118.883 158.834 118.834 158.688 118.834C158.453 118.834 158.273 118.99 158.273 119.195C158.273 119.288 158.302 119.371 158.36 119.454L159.796 121.461L158.331 123.478C158.277 123.556 158.248 123.639 158.248 123.722C158.248 123.932 158.419 124.088 158.648 124.088ZM163.58 125.792C163.829 125.792 164.005 125.606 164.005 125.338V123.175H164.024C164.327 123.731 164.913 124.088 165.641 124.088C166.92 124.088 167.794 123.053 167.794 121.461C167.794 119.869 166.915 118.834 165.621 118.834C164.884 118.834 164.293 119.21 163.981 119.781H163.961V119.264C163.961 119.01 163.795 118.834 163.561 118.834C163.321 118.834 163.155 119.01 163.155 119.264V125.338C163.155 125.606 163.331 125.792 163.58 125.792ZM165.455 123.341C164.586 123.341 164 122.594 164 121.461C164 120.333 164.586 119.581 165.455 119.581C166.358 119.581 166.925 120.313 166.925 121.461C166.925 122.613 166.358 123.341 165.455 123.341ZM169.078 124.049C169.391 124.049 169.635 123.805 169.635 123.492C169.635 123.18 169.391 122.936 169.078 122.936C168.766 122.936 168.522 123.18 168.522 123.492C168.522 123.805 168.766 124.049 169.078 124.049ZM173.033 124H174.962C177.057 124 178.287 122.696 178.287 120.475C178.287 118.258 177.052 116.954 174.962 116.954H173.033C172.765 116.954 172.594 117.13 172.594 117.408V123.546C172.594 123.824 172.765 124 173.033 124ZM173.473 123.209V117.745H174.903C176.505 117.745 177.389 118.722 177.389 120.484C177.389 122.232 176.5 123.209 174.903 123.209H173.473ZM180.729 124.088C181.412 124.088 182.062 123.707 182.364 123.126H182.384V123.658C182.384 123.912 182.55 124.088 182.789 124.088C183.023 124.088 183.19 123.912 183.19 123.658V120.489C183.19 119.479 182.438 118.834 181.246 118.834C180.421 118.834 179.679 119.2 179.391 119.757C179.322 119.879 179.288 120.001 179.288 120.108C179.288 120.338 179.444 120.489 179.664 120.489C179.825 120.489 179.938 120.426 180.016 120.284C180.299 119.781 180.675 119.581 181.227 119.581C181.93 119.581 182.34 119.952 182.34 120.572V120.997L180.88 121.08C179.708 121.148 179.039 121.695 179.039 122.564C179.039 123.478 179.718 124.088 180.729 124.088ZM180.919 123.365C180.309 123.365 179.903 123.048 179.903 122.564C179.903 122.086 180.294 121.783 180.978 121.739L182.34 121.656V122.071C182.34 122.804 181.72 123.365 180.919 123.365ZM184.542 122.828C184.542 123.639 184.952 124.039 185.773 124.039H185.826C186.3 124.039 186.446 123.902 186.446 123.644C186.446 123.443 186.319 123.331 186.041 123.312L185.968 123.307C185.543 123.277 185.392 123.072 185.392 122.643V119.62H186.046C186.29 119.62 186.427 119.493 186.427 119.269C186.427 119.049 186.29 118.922 186.046 118.922H185.392V118.053C185.392 117.784 185.216 117.599 184.967 117.599C184.718 117.599 184.542 117.784 184.542 118.053V118.922H184.117C183.873 118.922 183.736 119.049 183.736 119.269C183.736 119.493 183.873 119.62 184.117 119.62H184.542V122.828ZM189.269 124.088C190.196 124.088 190.909 123.697 191.236 123.009C191.275 122.916 191.3 122.828 191.3 122.76C191.3 122.535 191.148 122.389 190.924 122.389C190.792 122.389 190.694 122.438 190.607 122.56C190.211 123.136 189.84 123.351 189.234 123.351C188.326 123.351 187.765 122.716 187.765 121.69H190.939C191.232 121.69 191.407 121.505 191.407 121.197C191.407 119.806 190.494 118.834 189.195 118.834C187.794 118.834 186.891 119.879 186.891 121.48C186.891 123.121 187.77 124.088 189.269 124.088ZM187.77 121.026C187.823 120.152 188.39 119.571 189.181 119.571C189.967 119.571 190.509 120.147 190.528 121.026H187.77Z" fill="white"/>
<path id="Tanya Robinson" d="M23.352 145.1C23.8266 145.1 24.1078 144.812 24.1078 144.314V137.822H26.0414C26.4516 137.822 26.7328 137.576 26.7328 137.184C26.7328 136.791 26.4575 136.545 26.0414 136.545H20.6684C20.2524 136.545 19.977 136.791 19.977 137.184C19.977 137.576 20.2582 137.822 20.6684 137.822H22.602V144.314C22.602 144.812 22.8832 145.1 23.352 145.1ZM27.8578 145.1C28.6606 145.1 29.4399 144.684 29.7973 144.01H29.8266V144.443C29.85 144.877 30.1254 145.117 30.5239 145.117C30.934 145.117 31.2328 144.854 31.2328 144.385V140.723C31.2328 139.475 30.2309 138.66 28.6899 138.66C27.5004 138.66 26.5395 139.117 26.2231 139.838C26.1586 139.973 26.1235 140.102 26.1235 140.236C26.1235 140.588 26.3813 140.822 26.7387 140.822C26.9848 140.822 27.1782 140.729 27.3305 140.529C27.6938 139.996 28.0629 139.803 28.6313 139.803C29.352 139.803 29.7914 140.178 29.7914 140.828V141.273L28.145 141.367C26.6332 141.461 25.7836 142.123 25.7836 143.225C25.7836 144.344 26.6567 145.1 27.8578 145.1ZM28.3032 143.998C27.6703 143.998 27.2426 143.676 27.2426 143.166C27.2426 142.674 27.6469 142.357 28.35 142.311L29.7914 142.223V142.697C29.7914 143.447 29.1235 143.998 28.3032 143.998ZM33.1371 145.117C33.5649 145.117 33.8696 144.842 33.8696 144.35V141.402C33.8696 140.512 34.4028 139.908 35.2407 139.908C36.0727 139.908 36.4828 140.4 36.4828 141.279V144.35C36.4828 144.842 36.7875 145.117 37.2153 145.117C37.643 145.117 37.9418 144.842 37.9418 144.35V140.986C37.9418 139.551 37.1625 138.672 35.7914 138.672C34.8364 138.672 34.1918 139.1 33.8578 139.838H33.8286V139.404C33.8286 138.953 33.5356 138.666 33.1078 138.666C32.6743 138.666 32.4106 138.953 32.4106 139.404V144.35C32.4106 144.842 32.7094 145.117 33.1371 145.117ZM39.9809 147.309C41.2231 147.309 41.8676 146.77 42.4301 145.223L44.475 139.75C44.5278 139.609 44.5571 139.445 44.5571 139.328C44.5571 138.941 44.2641 138.666 43.8481 138.666C43.4789 138.666 43.268 138.836 43.145 139.234L41.6625 143.758H41.6391L40.1567 139.24C40.0336 138.83 39.8286 138.666 39.4594 138.666C39.0317 138.666 38.7094 138.947 38.7094 139.346C38.7094 139.463 38.7387 139.615 38.7914 139.762L40.8246 145.111L40.7192 145.416C40.5024 145.961 40.1625 146.131 39.8344 146.131C39.6996 146.131 39.6411 146.125 39.518 146.125C39.1782 146.125 38.9672 146.318 38.9672 146.617C38.9672 147.062 39.3246 147.309 39.9809 147.309ZM47.0414 145.1C47.8442 145.1 48.6235 144.684 48.9809 144.01H49.0102V144.443C49.0336 144.877 49.309 145.117 49.7075 145.117C50.1176 145.117 50.4164 144.854 50.4164 144.385V140.723C50.4164 139.475 49.4145 138.66 47.8735 138.66C46.684 138.66 45.7231 139.117 45.4067 139.838C45.3422 139.973 45.3071 140.102 45.3071 140.236C45.3071 140.588 45.5649 140.822 45.9223 140.822C46.1684 140.822 46.3618 140.729 46.5141 140.529C46.8774 139.996 47.2465 139.803 47.8149 139.803C48.5356 139.803 48.975 140.178 48.975 140.828V141.273L47.3286 141.367C45.8168 141.461 44.9672 142.123 44.9672 143.225C44.9672 144.344 45.8403 145.1 47.0414 145.1ZM47.4868 143.998C46.8539 143.998 46.4262 143.676 46.4262 143.166C46.4262 142.674 46.8305 142.357 47.5336 142.311L48.975 142.223V142.697C48.975 143.447 48.3071 143.998 47.4868 143.998ZM54.8989 145.117C55.3676 145.117 55.6547 144.824 55.6547 144.332V141.818H57.3481L58.8539 144.572C59.0883 144.988 59.2641 145.117 59.6215 145.117C60.0551 145.117 60.3832 144.824 60.3832 144.426C60.3832 144.25 60.3481 144.121 60.2192 143.904L58.8832 141.561C59.8618 141.18 60.4243 140.277 60.4243 139.176C60.4243 137.559 59.3286 136.545 57.5004 136.545H54.8989C54.4301 136.545 54.143 136.838 54.143 137.33V144.332C54.143 144.824 54.4301 145.117 54.8989 145.117ZM55.6547 140.658V137.77H57.3305C58.2856 137.77 58.8774 138.32 58.8774 139.211C58.8774 140.125 58.3207 140.658 57.3598 140.658H55.6547ZM64.2094 145.123C66.0317 145.123 67.2153 143.91 67.2153 141.895C67.2153 139.885 66.02 138.66 64.2094 138.66C62.3989 138.66 61.2036 139.891 61.2036 141.895C61.2036 143.91 62.3871 145.123 64.2094 145.123ZM64.2094 143.969C63.2836 143.969 62.686 143.219 62.686 141.895C62.686 140.576 63.2895 139.82 64.2094 139.82C65.1352 139.82 65.7328 140.576 65.7328 141.895C65.7328 143.219 65.1352 143.969 64.2094 143.969ZM68.9028 145.117C69.3246 145.117 69.6235 144.854 69.6235 144.385V143.939H69.6528C70.0219 144.66 70.7192 145.1 71.6274 145.1C73.2036 145.1 74.1938 143.881 74.1938 141.895C74.1938 139.908 73.1977 138.684 71.6332 138.684C70.7485 138.684 70.0453 139.129 69.6879 139.855H69.6528V137.195C69.6528 136.703 69.3539 136.428 68.9262 136.428C68.4985 136.428 68.1938 136.703 68.1938 137.195V144.385C68.1938 144.859 68.4809 145.117 68.9028 145.117ZM71.1821 143.904C70.2797 143.904 69.6469 143.113 69.6469 141.895C69.6469 140.688 70.2797 139.885 71.1821 139.885C72.1137 139.885 72.6996 140.664 72.6996 141.895C72.6996 143.131 72.1137 143.904 71.1821 143.904ZM75.8989 137.916C76.3559 137.916 76.7133 137.564 76.7133 137.125C76.7133 136.68 76.3559 136.334 75.8989 136.334C75.4477 136.334 75.0903 136.68 75.0903 137.125C75.0903 137.564 75.4477 137.916 75.8989 137.916ZM75.8989 145.117C76.3442 145.117 76.6313 144.824 76.6313 144.35V139.439C76.6313 138.965 76.3442 138.666 75.8989 138.666C75.4536 138.666 75.1723 138.965 75.1723 139.434V144.35C75.1723 144.824 75.4536 145.117 75.8989 145.117ZM78.5825 145.117C79.0102 145.117 79.3149 144.842 79.3149 144.35V141.402C79.3149 140.512 79.8481 139.908 80.686 139.908C81.518 139.908 81.9282 140.4 81.9282 141.279V144.35C81.9282 144.842 82.2328 145.117 82.6606 145.117C83.0883 145.117 83.3871 144.842 83.3871 144.35V140.986C83.3871 139.551 82.6078 138.672 81.2368 138.672C80.2817 138.672 79.6371 139.1 79.3032 139.838H79.2739V139.404C79.2739 138.953 78.9809 138.666 78.5532 138.666C78.1196 138.666 77.8559 138.953 77.8559 139.404V144.35C77.8559 144.842 78.1547 145.117 78.5825 145.117ZM86.9555 145.123C88.5375 145.123 89.6039 144.344 89.6039 143.154C89.6039 142.234 89.0825 141.76 87.77 141.461L86.7797 141.244C86.1352 141.098 85.8657 140.852 85.8657 140.488C85.8657 140.043 86.3051 139.732 86.9438 139.732C87.559 139.732 87.9164 140.002 88.2036 140.43C88.3383 140.623 88.5493 140.699 88.7602 140.699C89.1293 140.699 89.3227 140.482 89.3227 140.178C89.3227 140.107 89.311 140.037 89.2934 139.961C89.1 139.246 88.1743 138.66 86.9789 138.66C85.4438 138.66 84.4477 139.416 84.4477 140.57C84.4477 141.473 85.0453 142.07 86.2582 142.346L87.2661 142.574C87.9047 142.721 88.1391 142.926 88.1391 143.301C88.1391 143.77 87.6879 144.057 87.0082 144.057C86.311 144.057 85.936 143.846 85.6078 143.371C85.4203 143.125 85.2153 143.014 84.975 143.014C84.6235 143.014 84.3657 143.236 84.3657 143.588C84.3657 143.676 84.3832 143.77 84.4243 143.875C84.7231 144.619 85.643 145.123 86.9555 145.123ZM93.2719 145.123C95.0942 145.123 96.2778 143.91 96.2778 141.895C96.2778 139.885 95.0825 138.66 93.2719 138.66C91.4614 138.66 90.2661 139.891 90.2661 141.895C90.2661 143.91 91.4496 145.123 93.2719 145.123ZM93.2719 143.969C92.3461 143.969 91.7485 143.219 91.7485 141.895C91.7485 140.576 92.352 139.82 93.2719 139.82C94.1977 139.82 94.7953 140.576 94.7953 141.895C94.7953 143.219 94.1977 143.969 93.2719 143.969ZM97.9418 145.117C98.3696 145.117 98.6743 144.842 98.6743 144.35V141.402C98.6743 140.512 99.2075 139.908 100.045 139.908C100.877 139.908 101.288 140.4 101.288 141.279V144.35C101.288 144.842 101.592 145.117 102.02 145.117C102.448 145.117 102.747 144.842 102.747 144.35V140.986C102.747 139.551 101.967 138.672 100.596 138.672C99.6411 138.672 98.9965 139.1 98.6625 139.838H98.6332V139.404C98.6332 138.953 98.3403 138.666 97.9125 138.666C97.4789 138.666 97.2153 138.953 97.2153 139.404V144.35C97.2153 144.842 97.5141 145.117 97.9418 145.117Z" fill="white"/>
<path id="Cardholder" d="M23.3735 124.117C24.6625 124.117 25.5805 123.59 26.0444 122.657C26.1225 122.501 26.1616 122.369 26.1616 122.218C26.1616 121.988 25.9955 121.822 25.7612 121.822C25.5659 121.822 25.4438 121.915 25.351 122.13C25.019 122.921 24.2963 123.307 23.3784 123.307C21.9868 123.307 21.103 122.203 21.103 120.475C21.103 118.761 21.9965 117.647 23.3735 117.647C24.2426 117.647 24.9995 118.097 25.3315 118.927C25.4291 119.176 25.5805 119.293 25.7953 119.293C26.0346 119.293 26.1909 119.137 26.1909 118.893C26.1909 118.79 26.1664 118.668 26.1176 118.546C25.7026 117.496 24.6577 116.837 23.3735 116.837C21.4448 116.837 20.1996 118.263 20.1996 120.475C20.1996 122.706 21.4301 124.117 23.3735 124.117ZM28.686 124.088C29.3696 124.088 30.019 123.707 30.3217 123.126H30.3412V123.658C30.3412 123.912 30.5073 124.088 30.7465 124.088C30.9809 124.088 31.1469 123.912 31.1469 123.658V120.489C31.1469 119.479 30.395 118.834 29.2036 118.834C28.3784 118.834 27.6362 119.2 27.3481 119.757C27.2797 119.879 27.2455 120.001 27.2455 120.108C27.2455 120.338 27.4018 120.489 27.6215 120.489C27.7827 120.489 27.895 120.426 27.9731 120.284C28.2563 119.781 28.6323 119.581 29.184 119.581C29.8871 119.581 30.2973 119.952 30.2973 120.572V120.997L28.8373 121.08C27.6655 121.148 26.9965 121.695 26.9965 122.564C26.9965 123.478 27.6752 124.088 28.686 124.088ZM28.8764 123.365C28.2661 123.365 27.8608 123.048 27.8608 122.564C27.8608 122.086 28.2514 121.783 28.935 121.739L30.2973 121.656V122.071C30.2973 122.804 29.6772 123.365 28.8764 123.365ZM32.6508 124.088C32.8998 124.088 33.0756 123.902 33.0756 123.634V120.846C33.0756 120.196 33.4028 119.645 34.1694 119.645C34.3549 119.645 34.4868 119.61 34.5746 119.537C34.6625 119.469 34.7065 119.371 34.7065 119.239C34.7065 119.122 34.6723 119.024 34.5991 118.956C34.5161 118.878 34.3842 118.834 34.1987 118.834C33.6909 118.834 33.1928 119.225 33.0463 119.752H33.0268V119.264C33.0268 119.01 32.8608 118.834 32.6264 118.834C32.392 118.834 32.226 119.01 32.226 119.264V123.634C32.226 123.902 32.4018 124.088 32.6508 124.088ZM36.9916 124.088C37.7875 124.088 38.3149 123.697 38.5932 123.092H38.6078V123.673C38.6078 123.922 38.8032 124.088 39.0424 124.088C39.2866 124.088 39.4575 123.917 39.4575 123.673V117.32C39.4575 117.052 39.2817 116.866 39.0327 116.866C38.7836 116.866 38.6078 117.052 38.6078 117.32V119.747H38.5883C38.2856 119.19 37.6996 118.834 36.9721 118.834C35.6928 118.834 34.8188 119.869 34.8188 121.461C34.8188 123.053 35.6977 124.088 36.9916 124.088ZM37.1528 123.341C36.2543 123.341 35.6879 122.613 35.6879 121.461C35.6879 120.313 36.2543 119.581 37.1528 119.581C38.0268 119.581 38.6127 120.328 38.6127 121.461C38.6127 122.599 38.0268 123.341 37.1528 123.341ZM41.0737 124.088C41.3227 124.088 41.4985 123.902 41.4985 123.634V121.041C41.4985 120.162 42.0209 119.586 42.8657 119.586C43.6616 119.586 44.0668 120.069 44.0668 120.875V123.634C44.0668 123.902 44.2426 124.088 44.4916 124.088C44.7407 124.088 44.9164 123.902 44.9164 123.634V120.719C44.9164 119.586 44.2426 118.834 43.1293 118.834C42.3578 118.834 41.8012 119.166 41.518 119.732H41.4985V117.311C41.4985 117.047 41.3325 116.866 41.0737 116.866C40.8198 116.866 40.6489 117.047 40.6489 117.311V123.634C40.6489 123.902 40.8246 124.088 41.0737 124.088ZM48.1 124.088C49.5014 124.088 50.4487 123.077 50.4487 121.461C50.4487 119.84 49.5014 118.834 48.1 118.834C46.6938 118.834 45.7465 119.84 45.7465 121.461C45.7465 123.077 46.6938 124.088 48.1 124.088ZM48.1 123.341C47.2016 123.341 46.6108 122.657 46.6108 121.461C46.6108 120.265 47.2016 119.581 48.1 119.581C48.9985 119.581 49.5844 120.265 49.5844 121.461C49.5844 122.657 48.9985 123.341 48.1 123.341ZM51.7768 124.088C52.0258 124.088 52.2016 123.902 52.2016 123.634V117.32C52.2016 117.052 52.0258 116.866 51.7768 116.866C51.5278 116.866 51.352 117.052 51.352 117.32V123.634C51.352 123.902 51.5278 124.088 51.7768 124.088ZM55.2729 124.088C56.0688 124.088 56.5961 123.697 56.8745 123.092H56.8891V123.673C56.8891 123.922 57.0844 124.088 57.3237 124.088C57.5678 124.088 57.7387 123.917 57.7387 123.673V117.32C57.7387 117.052 57.5629 116.866 57.3139 116.866C57.0649 116.866 56.8891 117.052 56.8891 117.32V119.747H56.8696C56.5668 119.19 55.9809 118.834 55.2534 118.834C53.9741 118.834 53.1 119.869 53.1 121.461C53.1 123.053 53.9789 124.088 55.2729 124.088ZM55.434 123.341C54.5356 123.341 53.9692 122.613 53.9692 121.461C53.9692 120.313 54.5356 119.581 55.434 119.581C56.308 119.581 56.894 120.328 56.894 121.461C56.894 122.599 56.308 123.341 55.434 123.341ZM61.0151 124.088C61.9428 124.088 62.6557 123.697 62.9828 123.009C63.0219 122.916 63.0463 122.828 63.0463 122.76C63.0463 122.535 62.895 122.389 62.6703 122.389C62.5385 122.389 62.4409 122.438 62.353 122.56C61.9575 123.136 61.5864 123.351 60.9809 123.351C60.0727 123.351 59.5112 122.716 59.5112 121.69H62.685C62.978 121.69 63.1537 121.505 63.1537 121.197C63.1537 119.806 62.2407 118.834 60.9418 118.834C59.5405 118.834 58.6371 119.879 58.6371 121.48C58.6371 123.121 59.5161 124.088 61.0151 124.088ZM59.5161 121.026C59.5698 120.152 60.1362 119.571 60.9272 119.571C61.7133 119.571 62.2553 120.147 62.2748 121.026H59.5161ZM64.4379 124.088C64.687 124.088 64.8627 123.902 64.8627 123.634V120.846C64.8627 120.196 65.1899 119.645 65.9565 119.645C66.142 119.645 66.2739 119.61 66.3618 119.537C66.4496 119.469 66.4936 119.371 66.4936 119.239C66.4936 119.122 66.4594 119.024 66.3862 118.956C66.3032 118.878 66.1713 118.834 65.9858 118.834C65.478 118.834 64.9799 119.225 64.8334 119.752H64.8139V119.264C64.8139 119.01 64.6479 118.834 64.4135 118.834C64.1791 118.834 64.0131 119.01 64.0131 119.264V123.634C64.0131 123.902 64.1889 124.088 64.4379 124.088Z" fill="white"/>
<path id="1234  5678  9123  4567" d="M24.2504 84.1406C24.6489 84.1406 24.9301 83.8438 24.9301 83.4141V73.375C24.9301 72.8828 24.6332 72.5859 24.1489 72.5859C23.8286 72.5859 23.6411 72.6641 23.2036 72.9766L20.7895 74.7031C20.4926 74.9141 20.3989 75.0781 20.3989 75.3281C20.3989 75.6719 20.6254 75.9062 20.9536 75.9062C21.1254 75.9062 21.2739 75.8516 21.4301 75.7422L23.5395 74.2656H23.5707V83.4141C23.5707 83.8438 23.852 84.1406 24.2504 84.1406ZM28.4379 84H34.6489C35.0473 84 35.3129 83.75 35.3129 83.375C35.3129 83 35.0473 82.75 34.6489 82.75H29.727V82.7188L32.5551 79.8125C34.4848 77.8359 35.0473 76.9062 35.0473 75.6719C35.0473 73.8516 33.5786 72.5391 31.5473 72.5391C29.2426 72.5391 28.0004 74.0391 27.8364 75.1953C27.8207 75.2891 27.8129 75.375 27.8129 75.4766C27.8129 75.8438 28.0473 76.1016 28.4614 76.1016C28.8442 76.1016 29.0004 75.8984 29.0942 75.6094C29.477 74.3984 30.3286 73.7656 31.5473 73.7656C32.7582 73.7656 33.6411 74.6094 33.6411 75.7578C33.6411 76.7031 33.2817 77.3047 31.7661 78.8906L28.1567 82.6562C27.8207 83.0078 27.7582 83.1328 27.7582 83.4219C27.7582 83.7734 28.0239 84 28.4379 84ZM40.6567 84.1875C42.8676 84.1875 44.5707 82.8359 44.5707 80.8984C44.5707 79.2969 43.4536 78.2734 41.8129 78.1328V78.1016C43.227 77.8047 44.2036 76.8438 44.2036 75.4453C44.2036 73.8359 42.8989 72.5391 40.6411 72.5391C39.0786 72.5391 37.8832 73.1875 37.2895 74.3125C37.1254 74.6172 37.0551 74.8984 37.0551 75.2188C37.0551 75.625 37.2817 75.8594 37.6801 75.8594C38.0317 75.8594 38.1723 75.7109 38.3129 75.3047C38.7192 74.2812 39.3989 73.7578 40.6411 73.7578C42.0864 73.7578 42.7895 74.5156 42.7895 75.6328C42.7895 76.7578 41.852 77.5859 40.5082 77.5859H39.6723C39.2973 77.5859 39.0395 77.8281 39.0395 78.1797C39.0395 78.5312 39.2973 78.7734 39.6723 78.7734H40.5707C42.1567 78.7734 43.1489 79.5547 43.1411 80.9453C43.1332 82.125 42.1411 82.9688 40.6567 82.9688C39.2973 82.9688 38.4926 82.3984 38.1176 81.4297C37.9692 81.0469 37.7895 80.875 37.4692 80.875C37.0629 80.875 36.8207 81.1406 36.8207 81.5312C36.8207 81.8359 36.8989 82.1172 37.0786 82.4297C37.7582 83.5859 38.977 84.1875 40.6567 84.1875ZM52.3676 84.1406C52.7661 84.1406 53.0473 83.8438 53.0473 83.4141V81.6562H54.0786C54.4536 81.6562 54.7348 81.4141 54.7348 81.0391C54.7348 80.6641 54.4536 80.4219 54.0786 80.4219H53.0473V73.6953C53.0473 72.9688 52.6489 72.5859 51.8989 72.5859C51.2817 72.5859 50.9145 72.8594 50.2817 73.7734C48.6957 76.0469 47.1411 78.3438 46.3286 79.7969C46.0707 80.2578 45.9926 80.5 45.9926 80.8594C45.9926 81.3438 46.3051 81.6562 46.8051 81.6562H51.6879V83.4141C51.6879 83.8438 51.9692 84.1406 52.3676 84.1406ZM51.6879 80.4219H47.3989V80.3906C48.3129 78.7891 49.5786 76.9297 51.6645 73.9453H51.6879V80.4219ZM66.4379 84.1875C68.7973 84.1875 70.4536 82.5859 70.4536 80.3125C70.4536 78.1406 68.9067 76.6016 66.727 76.6016C65.6254 76.6016 64.6957 76.9922 64.1879 77.6797H64.1567L64.5161 73.9766H69.2348C69.6332 73.9766 69.8989 73.7266 69.8989 73.3516C69.8989 72.9766 69.6332 72.7266 69.2348 72.7266H64.5239C63.6957 72.7266 63.3286 73.0391 63.2582 73.8281L62.8598 78.2969C62.852 78.3672 62.852 78.4141 62.852 78.4766C62.852 78.8828 63.0942 79.2031 63.5317 79.2031C63.8832 79.2031 64.0004 79.1328 64.5004 78.6016C64.9692 78.1016 65.6879 77.8125 66.4614 77.8125C67.9692 77.8125 69.0473 78.8672 69.0473 80.3516C69.0473 81.8828 67.9848 82.9531 66.4692 82.9531C65.2426 82.9531 64.3598 82.3359 64.0161 81.2422C63.8911 80.8438 63.7036 80.6875 63.3598 80.6875C62.9614 80.6875 62.7036 80.9453 62.7036 81.3438C62.7036 81.6328 62.7661 81.8516 62.8676 82.0938C63.3989 83.3672 64.7895 84.1875 66.4379 84.1875ZM76.0004 84.1953C78.3129 84.1953 79.9926 82.5703 79.9926 80.3438C79.9926 78.2031 78.3989 76.6172 76.2504 76.6172C74.7192 76.6172 73.5629 77.4297 73.102 78.4453H73.0786V78.3438C73.1489 75.4062 74.2192 73.7734 76.0786 73.7734C77.0239 73.7734 77.7192 74.1719 78.2582 75.0234C78.5082 75.4219 78.7036 75.5703 78.9848 75.5703C79.3598 75.5703 79.6332 75.3203 79.6332 74.9688C79.6332 74.7422 79.5707 74.5469 79.4301 74.3047C78.7973 73.2031 77.5395 72.5312 76.0942 72.5312C73.3364 72.5312 71.7192 74.7578 71.7192 78.5547C71.7192 79.7734 71.8989 80.7891 72.2739 81.6562C72.9692 83.2812 74.3129 84.1953 76.0004 84.1953ZM75.9848 82.9453C74.5395 82.9453 73.4145 81.7969 73.4145 80.3516C73.4145 78.9141 74.5161 77.8516 76.0082 77.8516C77.5004 77.8516 78.5629 78.9141 78.5629 80.3906C78.5629 81.8125 77.4223 82.9453 75.9848 82.9453ZM83.0473 84.1406C83.352 84.1406 83.5317 84.0234 83.6801 83.7344L88.4223 74.4766C88.6332 74.0625 88.727 73.8438 88.727 73.5781C88.727 73.0391 88.4067 72.7266 87.8442 72.7266H81.7817C81.3989 72.7266 81.1176 72.9688 81.1176 73.3516C81.1176 73.7344 81.3989 73.9766 81.7817 73.9766H87.2582V74.0078L82.5239 83.1094C82.4301 83.2891 82.3989 83.4062 82.3989 83.5625C82.3989 83.9141 82.6645 84.1406 83.0473 84.1406ZM94.1254 84.1875C96.5161 84.1875 98.2192 82.8438 98.2192 80.9531C98.2192 79.5547 97.2504 78.3984 95.7895 78.0547V78.0234C97.0395 77.625 97.7973 76.6797 97.7973 75.5078C97.7973 73.7891 96.2582 72.5391 94.1254 72.5391C92.0082 72.5391 90.4457 73.7969 90.4457 75.5C90.4457 76.6875 91.2192 77.6406 92.4614 78.0234V78.0547C91.0082 78.3906 90.0395 79.5469 90.0395 80.9531C90.0395 82.8359 91.7426 84.1875 94.1254 84.1875ZM94.1254 77.5C92.7817 77.5 91.8442 76.7266 91.8442 75.6328C91.8442 74.5312 92.7817 73.75 94.1254 73.75C95.4692 73.75 96.4067 74.5234 96.4067 75.6328C96.4067 76.7266 95.4614 77.5 94.1254 77.5ZM94.1254 82.9609C92.5786 82.9609 91.4692 82.0781 91.4692 80.8516C91.4692 79.6172 92.5786 78.7344 94.1254 78.7344C95.6801 78.7344 96.7817 79.6094 96.7817 80.8516C96.7817 82.0781 95.6801 82.9609 94.1254 82.9609ZM109.993 84.1875C112.75 84.1875 114.36 81.9688 114.36 78.1719C114.36 76.9453 114.18 75.9297 113.805 75.0625C113.118 73.4453 111.774 72.5312 110.079 72.5312C107.766 72.5312 106.086 74.1562 106.086 76.3828C106.086 78.5234 107.68 80.1094 109.829 80.1094C111.266 80.1094 112.5 79.3828 112.977 78.2656H113V78.3984C112.93 81.3047 111.891 82.9609 110.008 82.9609C108.914 82.9609 108.305 82.5469 107.766 81.6953C107.516 81.2891 107.321 81.1484 107.024 81.1484C106.641 81.1484 106.391 81.3906 106.391 81.75C106.391 81.9531 106.446 82.1406 106.579 82.3828C107.024 83.2188 108.196 84.1875 109.993 84.1875ZM110.071 78.875C108.594 78.875 107.508 77.8047 107.508 76.3359C107.508 74.9219 108.649 73.7969 110.094 73.7969C111.547 73.7969 112.672 74.9297 112.672 76.375C112.672 77.8125 111.563 78.875 110.071 78.875ZM119.375 84.1406C119.774 84.1406 120.055 83.8438 120.055 83.4141V73.375C120.055 72.8828 119.758 72.5859 119.274 72.5859C118.954 72.5859 118.766 72.6641 118.329 72.9766L115.914 74.7031C115.618 74.9141 115.524 75.0781 115.524 75.3281C115.524 75.6719 115.75 75.9062 116.079 75.9062C116.25 75.9062 116.399 75.8516 116.555 75.7422L118.664 74.2656H118.696V83.4141C118.696 83.8438 118.977 84.1406 119.375 84.1406ZM123.563 84H129.774C130.172 84 130.438 83.75 130.438 83.375C130.438 83 130.172 82.75 129.774 82.75H124.852V82.7188L127.68 79.8125C129.61 77.8359 130.172 76.9062 130.172 75.6719C130.172 73.8516 128.704 72.5391 126.672 72.5391C124.368 72.5391 123.125 74.0391 122.961 75.1953C122.946 75.2891 122.938 75.375 122.938 75.4766C122.938 75.8438 123.172 76.1016 123.586 76.1016C123.969 76.1016 124.125 75.8984 124.219 75.6094C124.602 74.3984 125.454 73.7656 126.672 73.7656C127.883 73.7656 128.766 74.6094 128.766 75.7578C128.766 76.7031 128.407 77.3047 126.891 78.8906L123.282 82.6562C122.946 83.0078 122.883 83.1328 122.883 83.4219C122.883 83.7734 123.149 84 123.563 84ZM135.782 84.1875C137.993 84.1875 139.696 82.8359 139.696 80.8984C139.696 79.2969 138.579 78.2734 136.938 78.1328V78.1016C138.352 77.8047 139.329 76.8438 139.329 75.4453C139.329 73.8359 138.024 72.5391 135.766 72.5391C134.204 72.5391 133.008 73.1875 132.414 74.3125C132.25 74.6172 132.18 74.8984 132.18 75.2188C132.18 75.625 132.407 75.8594 132.805 75.8594C133.157 75.8594 133.297 75.7109 133.438 75.3047C133.844 74.2812 134.524 73.7578 135.766 73.7578C137.211 73.7578 137.914 74.5156 137.914 75.6328C137.914 76.7578 136.977 77.5859 135.633 77.5859H134.797C134.422 77.5859 134.164 77.8281 134.164 78.1797C134.164 78.5312 134.422 78.7734 134.797 78.7734H135.696C137.282 78.7734 138.274 79.5547 138.266 80.9453C138.258 82.125 137.266 82.9688 135.782 82.9688C134.422 82.9688 133.618 82.3984 133.243 81.4297C133.094 81.0469 132.914 80.875 132.594 80.875C132.188 80.875 131.946 81.1406 131.946 81.5312C131.946 81.8359 132.024 82.1172 132.204 82.4297C132.883 83.5859 134.102 84.1875 135.782 84.1875ZM154.055 84.1406C154.454 84.1406 154.735 83.8438 154.735 83.4141V81.6562H155.766C156.141 81.6562 156.422 81.4141 156.422 81.0391C156.422 80.6641 156.141 80.4219 155.766 80.4219H154.735V73.6953C154.735 72.9688 154.336 72.5859 153.586 72.5859C152.969 72.5859 152.602 72.8594 151.969 73.7734C150.383 76.0469 148.829 78.3438 148.016 79.7969C147.758 80.2578 147.68 80.5 147.68 80.8594C147.68 81.3438 147.993 81.6562 148.493 81.6562H153.375V83.4141C153.375 83.8438 153.657 84.1406 154.055 84.1406ZM153.375 80.4219H149.086V80.3906C150 78.7891 151.266 76.9297 153.352 73.9453H153.375V80.4219ZM161.563 84.1875C163.922 84.1875 165.579 82.5859 165.579 80.3125C165.579 78.1406 164.032 76.6016 161.852 76.6016C160.75 76.6016 159.821 76.9922 159.313 77.6797H159.282L159.641 73.9766H164.36C164.758 73.9766 165.024 73.7266 165.024 73.3516C165.024 72.9766 164.758 72.7266 164.36 72.7266H159.649C158.821 72.7266 158.454 73.0391 158.383 73.8281L157.985 78.2969C157.977 78.3672 157.977 78.4141 157.977 78.4766C157.977 78.8828 158.219 79.2031 158.657 79.2031C159.008 79.2031 159.125 79.1328 159.625 78.6016C160.094 78.1016 160.813 77.8125 161.586 77.8125C163.094 77.8125 164.172 78.8672 164.172 80.3516C164.172 81.8828 163.11 82.9531 161.594 82.9531C160.368 82.9531 159.485 82.3359 159.141 81.2422C159.016 80.8438 158.829 80.6875 158.485 80.6875C158.086 80.6875 157.829 80.9453 157.829 81.3438C157.829 81.6328 157.891 81.8516 157.993 82.0938C158.524 83.3672 159.914 84.1875 161.563 84.1875ZM171.125 84.1953C173.438 84.1953 175.118 82.5703 175.118 80.3438C175.118 78.2031 173.524 76.6172 171.375 76.6172C169.844 76.6172 168.688 77.4297 168.227 78.4453H168.204V78.3438C168.274 75.4062 169.344 73.7734 171.204 73.7734C172.149 73.7734 172.844 74.1719 173.383 75.0234C173.633 75.4219 173.829 75.5703 174.11 75.5703C174.485 75.5703 174.758 75.3203 174.758 74.9688C174.758 74.7422 174.696 74.5469 174.555 74.3047C173.922 73.2031 172.664 72.5312 171.219 72.5312C168.461 72.5312 166.844 74.7578 166.844 78.5547C166.844 79.7734 167.024 80.7891 167.399 81.6562C168.094 83.2812 169.438 84.1953 171.125 84.1953ZM171.11 82.9453C169.664 82.9453 168.539 81.7969 168.539 80.3516C168.539 78.9141 169.641 77.8516 171.133 77.8516C172.625 77.8516 173.688 78.9141 173.688 80.3906C173.688 81.8125 172.547 82.9453 171.11 82.9453ZM178.172 84.1406C178.477 84.1406 178.657 84.0234 178.805 83.7344L183.547 74.4766C183.758 74.0625 183.852 73.8438 183.852 73.5781C183.852 73.0391 183.532 72.7266 182.969 72.7266H176.907C176.524 72.7266 176.243 72.9688 176.243 73.3516C176.243 73.7344 176.524 73.9766 176.907 73.9766H182.383V74.0078L177.649 83.1094C177.555 83.2891 177.524 83.4062 177.524 83.5625C177.524 83.9141 177.789 84.1406 178.172 84.1406Z" fill="white"/>
<g id="VISA Logo_3">
<path id="Shape_2" fill-rule="evenodd" clip-rule="evenodd" d="M246.002 18.317C245.984 19.762 247.276 20.569 248.25 21.049C249.25 21.541 249.587 21.857 249.583 22.297C249.575 22.971 248.784 23.268 248.044 23.279C247.126 23.2993 246.217 23.081 245.406 22.645L244.941 24.845C245.852 25.2034 246.821 25.3842 247.798 25.378C250.496 25.378 252.261 24.032 252.271 21.945C252.278 20.3589 250.977 19.6683 249.937 19.1164C249.24 18.7466 248.661 18.439 248.671 17.966C248.679 17.607 249.018 17.224 249.759 17.126C250.628 17.0418 251.503 17.197 252.292 17.575L252.743 15.447C251.974 15.1546 251.16 15.0035 250.339 15.001C247.799 15.001 246.013 16.365 245.998 18.319L246.002 18.317ZM257.08 15.185C256.603 15.1831 256.172 15.4743 255.992 15.921L252.133 25.221H254.829L255.365 23.721H258.66L258.972 25.221H261.347L259.269 15.184H257.087L257.08 15.185ZM258.242 21.668L257.464 17.896L257.461 17.894L256.11 21.668H258.242ZM242.733 15.183L240.607 25.22H243.18L245.304 15.183H242.733ZM236.26 22.015L238.931 15.183H238.932H241.629L237.468 25.22H234.753L232.703 17.21C232.666 16.8286 232.435 16.4944 232.093 16.328C231.287 15.9373 230.435 15.6504 229.558 15.474L229.619 15.183H233.989C234.58 15.1807 235.085 15.6154 235.176 16.206L236.26 22.015Z" fill="white"/>
</g>
<g id="Rectangle_2">
<rect id="Rectangle_3" x="20.779" y="33" width="32.6526" height="24" rx="5" fill="#F0C753"/>
<rect id="Rectangle_4" x="43.5369" y="58" width="11.8737" height="26" rx="3" transform="rotate(180 43.5369 58)" fill="#F7CB6B"/>
<rect id="Rectangle_5" x="43.0421" y="57.5" width="10.8842" height="25" rx="2.5" transform="rotate(180 43.0421 57.5)" stroke="#2260FF"/>
<path id="Path" d="M22.7895 50C21.1326 50 19.7895 48.6569 19.7895 47V43C19.7895 41.3431 21.1326 40 22.7895 40H31.6632C33.3026 40 34.6316 41.3431 34.6316 43V47C34.6316 48.6569 33.3026 50 31.6632 50H22.7895Z" fill="#F7CB6B"/>
<path id="Path_2" fill-rule="evenodd" clip-rule="evenodd" d="M20.2842 49V41C20.2842 40.7239 20.5057 40.5 20.779 40.5H31.6632C33.0294 40.5 34.1369 41.6193 34.1369 43V47C34.1369 47.663 33.8763 48.2989 33.4123 48.7678C32.9484 49.2366 32.3193 49.5 31.6632 49.5H20.779C20.5057 49.5 20.2842 49.2761 20.2842 49Z" stroke="#2260FF"/>
<path id="Path_3" d="M53.4211 40C53.9734 40 54.4211 40.4477 54.4211 41V49C54.4211 49.5523 53.9734 50 53.4211 50H42.5474C40.908 50 39.579 48.6569 39.579 47V43C39.579 41.3431 40.908 40 42.5474 40H53.4211Z" fill="#F7CB6B"/>
<path id="Path_4" fill-rule="evenodd" clip-rule="evenodd" d="M53.9263 41V49C53.9263 49.2761 53.7048 49.5 53.4316 49.5H42.5474C41.1812 49.5 40.0737 48.3807 40.0737 47V43C40.0737 42.337 40.3343 41.7011 40.7982 41.2322C41.2621 40.7634 41.8913 40.5 42.5474 40.5H53.4316C53.7048 40.5 53.9263 40.7239 53.9263 41Z" stroke="#2260FF"/>
</g>
</g>
<defs>
<clipPath id="clip0_77_1224">
<rect width="282" height="170" fill="white"/>
</clipPath>
</defs>
</svg>
